%TF.GenerationSoftware,KiCad,Pcbnew,no-vcs-found-427e5ec~60~ubuntu16.04.1*%
%TF.CreationDate,2017-09-22T14:20:22-04:00*%
%TF.ProjectId,i2c_interface_mpr121,6932635F696E746572666163655F6D70,1.0*%
%TF.SameCoordinates,Original*%
%TF.FileFunction,Soldermask,Bot*%
%TF.FilePolarity,Negative*%
%FSLAX46Y46*%
G04 Gerber Fmt 4.6, Leading zero omitted, Abs format (unit mm)*
G04 Created by KiCad (PCBNEW no-vcs-found-427e5ec~60~ubuntu16.04.1) date Fri Sep 22 14:20:22 2017*
%MOMM*%
%LPD*%
G01*
G04 APERTURE LIST*
%ADD10C,0.228600*%
%ADD11R,1.625600X2.133600*%
%ADD12O,1.625600X2.133600*%
%ADD13C,3.250000*%
%ADD14O,1.854200X2.540000*%
%ADD15R,1.854200X2.540000*%
%ADD16R,2.540000X1.270000*%
%ADD17O,1.905000X2.540000*%
%ADD18R,1.905000X2.540000*%
%ADD19R,0.400000X1.330000*%
%ADD20O,2.286000X1.778000*%
%ADD21R,2.286000X1.778000*%
G04 APERTURE END LIST*
D10*
X142240000Y-101600000D02*
X104140000Y-101600000D01*
X144780000Y-142240000D02*
X144780000Y-104140000D01*
X104140000Y-144780000D02*
X142240000Y-144780000D01*
X101600000Y-104140000D02*
X101600000Y-142240000D01*
X144780000Y-104140000D02*
G75*
G03X142240000Y-101600000I-2540000J0D01*
G01*
X142240000Y-144780000D02*
G75*
G03X144780000Y-142240000I0J2540000D01*
G01*
X101600000Y-142240000D02*
G75*
G03X104140000Y-144780000I2540000J0D01*
G01*
X104140000Y-101600000D02*
G75*
G03X101600000Y-104140000I0J-2540000D01*
G01*
D11*
%TO.C,P1*%
X112903000Y-139954000D03*
D12*
X112903000Y-136906000D03*
X115443000Y-139954000D03*
X115443000Y-136906000D03*
X117983000Y-139954000D03*
X117983000Y-136906000D03*
%TD*%
%TO.C,P2*%
X133477000Y-136906000D03*
X133477000Y-139954000D03*
X130937000Y-136906000D03*
X130937000Y-139954000D03*
X128397000Y-136906000D03*
D11*
X128397000Y-139954000D03*
%TD*%
D13*
%TO.C,SO1*%
X104775000Y-104775000D03*
%TD*%
%TO.C,SO2*%
X104775000Y-141605000D03*
%TD*%
%TO.C,SO3*%
X141605000Y-141605000D03*
%TD*%
%TO.C,SO4*%
X141605000Y-104775000D03*
%TD*%
D14*
%TO.C,AF1*%
X139700000Y-109855000D03*
X137160000Y-109855000D03*
X134620000Y-109855000D03*
X132080000Y-109855000D03*
X129540000Y-109855000D03*
X127000000Y-109855000D03*
X124460000Y-109855000D03*
X121920000Y-109855000D03*
X119380000Y-109855000D03*
X116840000Y-109855000D03*
X114300000Y-109855000D03*
X111760000Y-109855000D03*
D15*
X109220000Y-109855000D03*
D14*
X132080000Y-125095000D03*
X129540000Y-125095000D03*
X127000000Y-125095000D03*
X124460000Y-125095000D03*
X121920000Y-125095000D03*
X119380000Y-125095000D03*
X116840000Y-125095000D03*
%TD*%
D16*
%TO.C,C1*%
X125095000Y-139954000D03*
X125095000Y-136906000D03*
%TD*%
D17*
%TO.C,T1*%
X137160000Y-104775000D03*
X134620000Y-104775000D03*
X132080000Y-104775000D03*
X129540000Y-104775000D03*
X127000000Y-104775000D03*
X124460000Y-104775000D03*
X121920000Y-104775000D03*
X119380000Y-104775000D03*
D18*
X109220000Y-104775000D03*
D17*
X111760000Y-104775000D03*
X114300000Y-104775000D03*
X116840000Y-104775000D03*
%TD*%
D19*
%TO.C,U1*%
X119650000Y-135930000D03*
X120150000Y-135930000D03*
X120650000Y-135930000D03*
X121150000Y-135930000D03*
X121650000Y-135930000D03*
X121650000Y-140930000D03*
X121150000Y-140930000D03*
X120650000Y-140930000D03*
X120150000Y-140930000D03*
X119650000Y-140930000D03*
%TD*%
D20*
%TO.C,S1*%
X104775000Y-121285000D03*
D21*
X104775000Y-118745000D03*
%TD*%
%TO.C,S2*%
X104775000Y-125095000D03*
D20*
X104775000Y-127635000D03*
%TD*%
%TO.C,S3*%
X104775000Y-133985000D03*
D21*
X104775000Y-131445000D03*
%TD*%
M02*
