M48
;DRILL file {KiCad no-vcs-found-427e5ec~60~ubuntu16.04.1} date Fri Sep 22 14:20:24 2017
;FORMAT={-:-/ absolute / inch / decimal}
FMAT,2
INCH,TZ
T1C0.040
T2C0.043
T3C0.044
T4C0.051
T5C0.108
%
G90
G05
M72
T1
X4.125Y-4.675
X4.125Y-4.775
X4.125Y-4.925
X4.125Y-5.025
X4.125Y-5.175
X4.125Y-5.275
T2
X4.3Y-4.325
X4.4Y-4.325
X4.5Y-4.325
X4.6Y-4.325
X4.6Y-4.925
X4.7Y-4.325
X4.7Y-4.925
X4.8Y-4.325
X4.8Y-4.925
X4.9Y-4.325
X4.9Y-4.925
X5.Y-4.325
X5.Y-4.925
X5.1Y-4.325
X5.1Y-4.925
X5.2Y-4.325
X5.2Y-4.925
X5.3Y-4.325
X5.4Y-4.325
X5.5Y-4.325
T3
X5.055Y-5.4
X5.055Y-5.5
X5.155Y-5.4
X5.155Y-5.5
X5.255Y-5.4
X5.255Y-5.5
X4.445Y-5.4
X4.445Y-5.5
X4.545Y-5.4
X4.545Y-5.5
X4.645Y-5.4
X4.645Y-5.5
T4
X4.3Y-4.125
X4.4Y-4.125
X4.5Y-4.125
X4.6Y-4.125
X4.7Y-4.125
X4.8Y-4.125
X4.9Y-4.125
X5.Y-4.125
X5.1Y-4.125
X5.2Y-4.125
X5.3Y-4.125
X5.4Y-4.125
T5
X4.125Y-5.575
X5.575Y-4.125
X4.125Y-4.125
X5.575Y-5.575
T0
M30
