%TF.GenerationSoftware,KiCad,Pcbnew,no-vcs-found-427e5ec~60~ubuntu16.04.1*%
%TF.CreationDate,2017-09-22T14:20:22-04:00*%
%TF.ProjectId,i2c_interface_mpr121,6932635F696E746572666163655F6D70,1.0*%
%TF.SameCoordinates,Original*%
%TF.FileFunction,Copper,L1,Top,Signal*%
%TF.FilePolarity,Positive*%
%FSLAX46Y46*%
G04 Gerber Fmt 4.6, Leading zero omitted, Abs format (unit mm)*
G04 Created by KiCad (PCBNEW no-vcs-found-427e5ec~60~ubuntu16.04.1) date Fri Sep 22 14:20:22 2017*
%MOMM*%
%LPD*%
G01*
G04 APERTURE LIST*
%TA.AperFunction,NonConductor*%
%ADD10C,0.228600*%
%TD*%
%TA.AperFunction,ComponentPad*%
%ADD11R,1.625600X2.133600*%
%TD*%
%TA.AperFunction,ComponentPad*%
%ADD12O,1.625600X2.133600*%
%TD*%
%TA.AperFunction,ComponentPad*%
%ADD13C,3.250000*%
%TD*%
%TA.AperFunction,ComponentPad*%
%ADD14O,1.854200X2.540000*%
%TD*%
%TA.AperFunction,ComponentPad*%
%ADD15R,1.854200X2.540000*%
%TD*%
%TA.AperFunction,ComponentPad*%
%ADD16O,1.905000X2.540000*%
%TD*%
%TA.AperFunction,ComponentPad*%
%ADD17R,1.905000X2.540000*%
%TD*%
%TA.AperFunction,ComponentPad*%
%ADD18O,2.286000X1.778000*%
%TD*%
%TA.AperFunction,ComponentPad*%
%ADD19R,2.286000X1.778000*%
%TD*%
%TA.AperFunction,Conductor*%
%ADD20C,0.304800*%
%TD*%
%TA.AperFunction,Conductor*%
%ADD21C,1.219200*%
%TD*%
%TA.AperFunction,Conductor*%
%ADD22C,0.203200*%
%TD*%
G04 APERTURE END LIST*
D10*
X142240000Y-101600000D02*
X104140000Y-101600000D01*
X144780000Y-142240000D02*
X144780000Y-104140000D01*
X104140000Y-144780000D02*
X142240000Y-144780000D01*
X101600000Y-104140000D02*
X101600000Y-142240000D01*
X144780000Y-104140000D02*
G75*
G03X142240000Y-101600000I-2540000J0D01*
G01*
X142240000Y-144780000D02*
G75*
G03X144780000Y-142240000I0J2540000D01*
G01*
X101600000Y-142240000D02*
G75*
G03X104140000Y-144780000I2540000J0D01*
G01*
X104140000Y-101600000D02*
G75*
G03X101600000Y-104140000I0J-2540000D01*
G01*
D11*
%TO.P,P1,1*%
%TO.N,/DSCLP*%
X112903000Y-139954000D03*
D12*
%TO.P,P1,2*%
%TO.N,/DSCLM*%
X112903000Y-136906000D03*
%TO.P,P1,3*%
%TO.N,VEE*%
X115443000Y-139954000D03*
%TO.P,P1,4*%
%TO.N,GND*%
X115443000Y-136906000D03*
%TO.P,P1,5*%
%TO.N,/DSDAP*%
X117983000Y-139954000D03*
%TO.P,P1,6*%
%TO.N,/DSDAM*%
X117983000Y-136906000D03*
%TD*%
%TO.P,P2,6*%
%TO.N,/DSDAM*%
X133477000Y-136906000D03*
%TO.P,P2,5*%
%TO.N,/DSDAP*%
X133477000Y-139954000D03*
%TO.P,P2,4*%
%TO.N,GND*%
X130937000Y-136906000D03*
%TO.P,P2,3*%
%TO.N,VEE*%
X130937000Y-139954000D03*
%TO.P,P2,2*%
%TO.N,/DSCLM*%
X128397000Y-136906000D03*
D11*
%TO.P,P2,1*%
%TO.N,/DSCLP*%
X128397000Y-139954000D03*
%TD*%
D13*
%TO.P,SO1,1*%
%TO.N,Net-(SO1-Pad1)*%
X104775000Y-104775000D03*
%TD*%
%TO.P,SO2,1*%
%TO.N,Net-(SO2-Pad1)*%
X104775000Y-141605000D03*
%TD*%
%TO.P,SO3,1*%
%TO.N,Net-(SO3-Pad1)*%
X141605000Y-141605000D03*
%TD*%
%TO.P,SO4,1*%
%TO.N,Net-(SO4-Pad1)*%
X141605000Y-104775000D03*
%TD*%
D14*
%TO.P,AF1,13*%
%TO.N,N/C*%
X139700000Y-109855000D03*
%TO.P,AF1,12*%
%TO.N,/IN_0*%
X137160000Y-109855000D03*
%TO.P,AF1,11*%
%TO.N,/IN_1*%
X134620000Y-109855000D03*
%TO.P,AF1,10*%
%TO.N,/IN_2*%
X132080000Y-109855000D03*
%TO.P,AF1,9*%
%TO.N,/IN_3*%
X129540000Y-109855000D03*
%TO.P,AF1,8*%
%TO.N,/IN_4*%
X127000000Y-109855000D03*
%TO.P,AF1,7*%
%TO.N,/IN_5*%
X124460000Y-109855000D03*
%TO.P,AF1,6*%
%TO.N,/IN_6*%
X121920000Y-109855000D03*
%TO.P,AF1,5*%
%TO.N,/IN_7*%
X119380000Y-109855000D03*
%TO.P,AF1,4*%
%TO.N,/IN_8*%
X116840000Y-109855000D03*
%TO.P,AF1,3*%
%TO.N,/IN_9*%
X114300000Y-109855000D03*
%TO.P,AF1,2*%
%TO.N,/IN_10*%
X111760000Y-109855000D03*
D15*
%TO.P,AF1,1*%
%TO.N,/IN_11*%
X109220000Y-109855000D03*
D14*
%TO.P,AF1,14*%
%TO.N,VEE*%
X132080000Y-125095000D03*
%TO.P,AF1,15*%
%TO.N,N/C*%
X129540000Y-125095000D03*
%TO.P,AF1,16*%
%TO.N,GND*%
X127000000Y-125095000D03*
%TO.P,AF1,17*%
%TO.N,/ADDR*%
X124460000Y-125095000D03*
%TO.P,AF1,18*%
%TO.N,/SDA*%
X121920000Y-125095000D03*
%TO.P,AF1,19*%
%TO.N,/SCL*%
X119380000Y-125095000D03*
%TO.P,AF1,20*%
%TO.N,N/C*%
X116840000Y-125095000D03*
%TD*%
D16*
%TO.P,T1,12*%
%TO.N,/IN_0*%
X137160000Y-104775000D03*
%TO.P,T1,11*%
%TO.N,/IN_1*%
X134620000Y-104775000D03*
%TO.P,T1,10*%
%TO.N,/IN_2*%
X132080000Y-104775000D03*
%TO.P,T1,9*%
%TO.N,/IN_3*%
X129540000Y-104775000D03*
%TO.P,T1,8*%
%TO.N,/IN_4*%
X127000000Y-104775000D03*
%TO.P,T1,7*%
%TO.N,/IN_5*%
X124460000Y-104775000D03*
%TO.P,T1,6*%
%TO.N,/IN_6*%
X121920000Y-104775000D03*
%TO.P,T1,5*%
%TO.N,/IN_7*%
X119380000Y-104775000D03*
D17*
%TO.P,T1,1*%
%TO.N,/IN_11*%
X109220000Y-104775000D03*
D16*
%TO.P,T1,2*%
%TO.N,/IN_10*%
X111760000Y-104775000D03*
%TO.P,T1,3*%
%TO.N,/IN_9*%
X114300000Y-104775000D03*
%TO.P,T1,4*%
%TO.N,/IN_8*%
X116840000Y-104775000D03*
%TD*%
D18*
%TO.P,S1,2*%
%TO.N,/ADDR*%
X104775000Y-121285000D03*
D19*
%TO.P,S1,1*%
%TO.N,VEE*%
X104775000Y-118745000D03*
%TD*%
%TO.P,S2,1*%
%TO.N,/SDA*%
X104775000Y-125095000D03*
D18*
%TO.P,S2,2*%
%TO.N,/ADDR*%
X104775000Y-127635000D03*
%TD*%
%TO.P,S3,2*%
%TO.N,/ADDR*%
X104775000Y-133985000D03*
D19*
%TO.P,S3,1*%
%TO.N,/SCL*%
X104775000Y-131445000D03*
%TD*%
D20*
%TO.N,/SCL*%
X118173500Y-125832400D02*
X118173500Y-125095000D01*
X112560900Y-131445000D02*
X118173500Y-125832400D01*
X104775000Y-131445000D02*
X112560900Y-131445000D01*
X119380000Y-125095000D02*
X118173500Y-125095000D01*
%TO.N,/SDA*%
X120713500Y-124357600D02*
X120713500Y-125095000D01*
X119913600Y-123557700D02*
X120713500Y-124357600D01*
X105143900Y-123557700D02*
X119913600Y-123557700D01*
X104775000Y-123926600D02*
X105143900Y-123557700D01*
X104775000Y-125095000D02*
X104775000Y-123926600D01*
X121920000Y-125095000D02*
X120713500Y-125095000D01*
%TO.N,GND*%
X130937000Y-137160000D02*
X129844800Y-137160000D01*
X115443000Y-137160000D02*
X114350800Y-137160000D01*
X127000000Y-125095000D02*
X127000000Y-135164800D01*
X128446900Y-135164800D02*
X127000000Y-135164800D01*
X129844800Y-136562700D02*
X128446900Y-135164800D01*
X129844800Y-137160000D02*
X129844800Y-136562700D01*
X114350800Y-137296800D02*
X114350800Y-137160000D01*
X113395500Y-138252100D02*
X114350800Y-137296800D01*
X112472300Y-138252100D02*
X113395500Y-138252100D01*
X111834900Y-137614700D02*
X112472300Y-138252100D01*
X111834900Y-136210600D02*
X111834900Y-137614700D01*
X112880700Y-135164800D02*
X111834900Y-136210600D01*
X127000000Y-135164800D02*
X112880700Y-135164800D01*
D21*
%TO.N,/IN_11*%
X109220000Y-104775000D02*
X109220000Y-109855000D01*
%TO.N,/IN_9*%
X114300000Y-104775000D02*
X114300000Y-109855000D01*
%TO.N,/IN_7*%
X119380000Y-104775000D02*
X119380000Y-109855000D01*
%TO.N,/IN_5*%
X124460000Y-104775000D02*
X124460000Y-109855000D01*
%TO.N,/IN_3*%
X129540000Y-104775000D02*
X129540000Y-109855000D01*
%TO.N,/IN_1*%
X134620000Y-104775000D02*
X134620000Y-109855000D01*
D20*
%TO.N,/DSCLP*%
X112903000Y-139700000D02*
X113995200Y-139700000D01*
X128397000Y-139700000D02*
X127304800Y-139700000D01*
X126212600Y-138607800D02*
X127304800Y-139700000D01*
X114950900Y-138607800D02*
X126212600Y-138607800D01*
X113995200Y-139563500D02*
X114950900Y-138607800D01*
X113995200Y-139700000D02*
X113995200Y-139563500D01*
%TO.N,/DSCLM*%
X114491400Y-135571600D02*
X112903000Y-137160000D01*
X125716400Y-135571600D02*
X114491400Y-135571600D01*
X127304800Y-137160000D02*
X125716400Y-135571600D01*
X128397000Y-137160000D02*
X127304800Y-137160000D01*
%TO.N,/DSDAP*%
X120650400Y-141275200D02*
X119075200Y-139700000D01*
X131406900Y-141275200D02*
X120650400Y-141275200D01*
X132384800Y-140297300D02*
X131406900Y-141275200D01*
X132384800Y-139700000D02*
X132384800Y-140297300D01*
X133477000Y-139700000D02*
X132384800Y-139700000D01*
X117983000Y-139700000D02*
X119075200Y-139700000D01*
%TO.N,/DSDAM*%
X132384800Y-137296800D02*
X132384800Y-137160000D01*
X131429500Y-138252100D02*
X132384800Y-137296800D01*
X126432200Y-138252100D02*
X131429500Y-138252100D01*
X125340100Y-137160000D02*
X126432200Y-138252100D01*
X117983000Y-137160000D02*
X125340100Y-137160000D01*
X133477000Y-137160000D02*
X132384800Y-137160000D01*
%TO.N,/ADDR*%
X123253500Y-124357600D02*
X123253500Y-125095000D01*
X120180900Y-121285000D02*
X123253500Y-124357600D01*
X104775000Y-121285000D02*
X120180900Y-121285000D01*
X124460000Y-125095000D02*
X123253500Y-125095000D01*
%TD*%
D22*
%TO.N,VEE*%
G36*
X143048490Y-102188129D02*
X143733896Y-102646102D01*
X144191871Y-103331510D01*
X144360900Y-104181277D01*
X144360900Y-142198723D01*
X144191871Y-143048490D01*
X143733896Y-143733898D01*
X143048490Y-144191871D01*
X142198723Y-144360900D01*
X104181277Y-144360900D01*
X103331510Y-144191871D01*
X102646102Y-143733896D01*
X102188129Y-143048490D01*
X102019100Y-142198723D01*
X102019100Y-141987177D01*
X102844866Y-141987177D01*
X103138041Y-142696716D01*
X103680429Y-143240051D01*
X104389455Y-143534464D01*
X105157177Y-143535134D01*
X105866716Y-143241959D01*
X106410051Y-142699571D01*
X106704464Y-141990545D01*
X106704466Y-141987177D01*
X139674866Y-141987177D01*
X139968041Y-142696716D01*
X140510429Y-143240051D01*
X141219455Y-143534464D01*
X141987177Y-143535134D01*
X142696716Y-143241959D01*
X143240051Y-142699571D01*
X143534464Y-141990545D01*
X143535134Y-141222823D01*
X143241959Y-140513284D01*
X142699571Y-139969949D01*
X141990545Y-139675536D01*
X141222823Y-139674866D01*
X140513284Y-139968041D01*
X139969949Y-140510429D01*
X139675536Y-141219455D01*
X139674866Y-141987177D01*
X106704466Y-141987177D01*
X106705134Y-141222823D01*
X106411959Y-140513284D01*
X105869571Y-139969949D01*
X105160545Y-139675536D01*
X104392823Y-139674866D01*
X103683284Y-139968041D01*
X103139949Y-140510429D01*
X102845536Y-141219455D01*
X102844866Y-141987177D01*
X102019100Y-141987177D01*
X102019100Y-136210600D01*
X111377700Y-136210600D01*
X111377700Y-137614700D01*
X111412502Y-137789663D01*
X111511611Y-137937989D01*
X112149011Y-138575389D01*
X112150567Y-138576429D01*
X112090200Y-138576429D01*
X111971273Y-138600085D01*
X111870452Y-138667452D01*
X111803085Y-138768273D01*
X111779429Y-138887200D01*
X111779429Y-141020800D01*
X111803085Y-141139727D01*
X111870452Y-141240548D01*
X111971273Y-141307915D01*
X112090200Y-141331571D01*
X113715800Y-141331571D01*
X113834727Y-141307915D01*
X113935548Y-141240548D01*
X114002915Y-141139727D01*
X114026571Y-141020800D01*
X114026571Y-140364478D01*
X114172494Y-140867408D01*
X114521550Y-141303415D01*
X115010888Y-141572655D01*
X115071245Y-141580960D01*
X115290600Y-141468823D01*
X115290600Y-140106400D01*
X115595400Y-140106400D01*
X115595400Y-141468823D01*
X115814755Y-141580960D01*
X115875112Y-141572655D01*
X116364450Y-141303415D01*
X116713506Y-140867408D01*
X116869139Y-140331012D01*
X116718424Y-140106400D01*
X115595400Y-140106400D01*
X115290600Y-140106400D01*
X115270600Y-140106400D01*
X115270600Y-139801600D01*
X115290600Y-139801600D01*
X115290600Y-139781600D01*
X115595400Y-139781600D01*
X115595400Y-139801600D01*
X116718424Y-139801600D01*
X116869139Y-139576988D01*
X116720588Y-139065000D01*
X117071039Y-139065000D01*
X116950472Y-139245442D01*
X116865400Y-139673129D01*
X116865400Y-140234871D01*
X116950472Y-140662558D01*
X117192737Y-141025134D01*
X117555313Y-141267399D01*
X117983000Y-141352471D01*
X118410687Y-141267399D01*
X118773263Y-141025134D01*
X119015528Y-140662558D01*
X119077853Y-140349231D01*
X120327111Y-141598489D01*
X120475437Y-141697598D01*
X120650400Y-141732400D01*
X131406900Y-141732400D01*
X131581863Y-141697598D01*
X131730189Y-141598489D01*
X132533252Y-140795427D01*
X132686737Y-141025134D01*
X133049313Y-141267399D01*
X133477000Y-141352471D01*
X133904687Y-141267399D01*
X134267263Y-141025134D01*
X134509528Y-140662558D01*
X134594600Y-140234871D01*
X134594600Y-139673129D01*
X134509528Y-139245442D01*
X134267263Y-138882866D01*
X133904687Y-138640601D01*
X133477000Y-138555529D01*
X133049313Y-138640601D01*
X132686737Y-138882866D01*
X132446237Y-139242800D01*
X132384800Y-139242800D01*
X132272648Y-139265108D01*
X132207506Y-139040592D01*
X131858450Y-138604585D01*
X131771457Y-138556721D01*
X132552277Y-137775901D01*
X132686737Y-137977134D01*
X133049313Y-138219399D01*
X133477000Y-138304471D01*
X133904687Y-138219399D01*
X134267263Y-137977134D01*
X134509528Y-137614558D01*
X134594600Y-137186871D01*
X134594600Y-136625129D01*
X134509528Y-136197442D01*
X134267263Y-135834866D01*
X133904687Y-135592601D01*
X133477000Y-135507529D01*
X133049313Y-135592601D01*
X132686737Y-135834866D01*
X132444472Y-136197442D01*
X132359400Y-136625129D01*
X132359400Y-136707852D01*
X132209837Y-136737602D01*
X132061511Y-136836711D01*
X132054600Y-136847054D01*
X132054600Y-136625129D01*
X131969528Y-136197442D01*
X131727263Y-135834866D01*
X131364687Y-135592601D01*
X130937000Y-135507529D01*
X130509313Y-135592601D01*
X130146737Y-135834866D01*
X129993252Y-136064574D01*
X128770189Y-134841511D01*
X128621863Y-134742402D01*
X128446900Y-134707600D01*
X127457200Y-134707600D01*
X127457200Y-126609709D01*
X127471428Y-126606879D01*
X127871085Y-126339837D01*
X128138127Y-125940180D01*
X128231900Y-125468752D01*
X128231900Y-124721248D01*
X128308100Y-124721248D01*
X128308100Y-125468752D01*
X128401873Y-125940180D01*
X128668915Y-126339837D01*
X129068572Y-126606879D01*
X129540000Y-126700652D01*
X130011428Y-126606879D01*
X130411085Y-126339837D01*
X130658586Y-125969425D01*
X130718595Y-126166769D01*
X131101152Y-126632274D01*
X131632730Y-126915947D01*
X131690269Y-126924357D01*
X131927600Y-126813785D01*
X131927600Y-125247400D01*
X132232400Y-125247400D01*
X132232400Y-126813785D01*
X132469731Y-126924357D01*
X132527270Y-126915947D01*
X133058848Y-126632274D01*
X133441405Y-126166769D01*
X133616700Y-125590300D01*
X133616700Y-125247400D01*
X132232400Y-125247400D01*
X131927600Y-125247400D01*
X131907600Y-125247400D01*
X131907600Y-124942600D01*
X131927600Y-124942600D01*
X131927600Y-123376215D01*
X132232400Y-123376215D01*
X132232400Y-124942600D01*
X133616700Y-124942600D01*
X133616700Y-124599700D01*
X133441405Y-124023231D01*
X133058848Y-123557726D01*
X132527270Y-123274053D01*
X132469731Y-123265643D01*
X132232400Y-123376215D01*
X131927600Y-123376215D01*
X131690269Y-123265643D01*
X131632730Y-123274053D01*
X131101152Y-123557726D01*
X130718595Y-124023231D01*
X130658586Y-124220575D01*
X130411085Y-123850163D01*
X130011428Y-123583121D01*
X129540000Y-123489348D01*
X129068572Y-123583121D01*
X128668915Y-123850163D01*
X128401873Y-124249820D01*
X128308100Y-124721248D01*
X128231900Y-124721248D01*
X128138127Y-124249820D01*
X127871085Y-123850163D01*
X127471428Y-123583121D01*
X127000000Y-123489348D01*
X126528572Y-123583121D01*
X126128915Y-123850163D01*
X125861873Y-124249820D01*
X125768100Y-124721248D01*
X125768100Y-125468752D01*
X125861873Y-125940180D01*
X126128915Y-126339837D01*
X126528572Y-126606879D01*
X126542800Y-126609709D01*
X126542800Y-134707600D01*
X112880700Y-134707600D01*
X112705737Y-134742402D01*
X112557411Y-134841510D01*
X111511611Y-135887311D01*
X111412502Y-136035637D01*
X111377700Y-136210600D01*
X102019100Y-136210600D01*
X102019100Y-133985000D01*
X103298836Y-133985000D01*
X103389709Y-134441847D01*
X103648492Y-134829144D01*
X104035789Y-135087927D01*
X104492636Y-135178800D01*
X105057364Y-135178800D01*
X105514211Y-135087927D01*
X105901508Y-134829144D01*
X106160291Y-134441847D01*
X106251164Y-133985000D01*
X106160291Y-133528153D01*
X105901508Y-133140856D01*
X105514211Y-132882073D01*
X105057364Y-132791200D01*
X104492636Y-132791200D01*
X104035789Y-132882073D01*
X103648492Y-133140856D01*
X103389709Y-133528153D01*
X103298836Y-133985000D01*
X102019100Y-133985000D01*
X102019100Y-127635000D01*
X103298836Y-127635000D01*
X103389709Y-128091847D01*
X103648492Y-128479144D01*
X104035789Y-128737927D01*
X104492636Y-128828800D01*
X105057364Y-128828800D01*
X105514211Y-128737927D01*
X105901508Y-128479144D01*
X106160291Y-128091847D01*
X106251164Y-127635000D01*
X106160291Y-127178153D01*
X105901508Y-126790856D01*
X105514211Y-126532073D01*
X105057364Y-126441200D01*
X104492636Y-126441200D01*
X104035789Y-126532073D01*
X103648492Y-126790856D01*
X103389709Y-127178153D01*
X103298836Y-127635000D01*
X102019100Y-127635000D01*
X102019100Y-119049800D01*
X103022400Y-119049800D01*
X103022400Y-119755257D01*
X103115206Y-119979311D01*
X103286689Y-120150794D01*
X103510743Y-120243600D01*
X103943707Y-120243600D01*
X103648492Y-120440856D01*
X103389709Y-120828153D01*
X103298836Y-121285000D01*
X103389709Y-121741847D01*
X103648492Y-122129144D01*
X104035789Y-122387927D01*
X104492636Y-122478800D01*
X105057364Y-122478800D01*
X105514211Y-122387927D01*
X105901508Y-122129144D01*
X106160055Y-121742200D01*
X119991522Y-121742200D01*
X121768754Y-123519433D01*
X121448572Y-123583121D01*
X121048915Y-123850163D01*
X120970299Y-123967820D01*
X120236889Y-123234411D01*
X120088563Y-123135302D01*
X119913600Y-123100500D01*
X105143900Y-123100500D01*
X104968937Y-123135302D01*
X104820611Y-123234411D01*
X104451711Y-123603311D01*
X104352602Y-123751637D01*
X104324040Y-123895229D01*
X103632000Y-123895229D01*
X103513073Y-123918885D01*
X103412252Y-123986252D01*
X103344885Y-124087073D01*
X103321229Y-124206000D01*
X103321229Y-125984000D01*
X103344885Y-126102927D01*
X103412252Y-126203748D01*
X103513073Y-126271115D01*
X103632000Y-126294771D01*
X105918000Y-126294771D01*
X106036927Y-126271115D01*
X106137748Y-126203748D01*
X106205115Y-126102927D01*
X106228771Y-125984000D01*
X106228771Y-124206000D01*
X106205115Y-124087073D01*
X106156890Y-124014900D01*
X115858841Y-124014900D01*
X115701873Y-124249820D01*
X115608100Y-124721248D01*
X115608100Y-125468752D01*
X115701873Y-125940180D01*
X115968915Y-126339837D01*
X116368572Y-126606879D01*
X116688755Y-126670567D01*
X112371522Y-130987800D01*
X106228771Y-130987800D01*
X106228771Y-130556000D01*
X106205115Y-130437073D01*
X106137748Y-130336252D01*
X106036927Y-130268885D01*
X105918000Y-130245229D01*
X103632000Y-130245229D01*
X103513073Y-130268885D01*
X103412252Y-130336252D01*
X103344885Y-130437073D01*
X103321229Y-130556000D01*
X103321229Y-132334000D01*
X103344885Y-132452927D01*
X103412252Y-132553748D01*
X103513073Y-132621115D01*
X103632000Y-132644771D01*
X105918000Y-132644771D01*
X106036927Y-132621115D01*
X106137748Y-132553748D01*
X106205115Y-132452927D01*
X106228771Y-132334000D01*
X106228771Y-131902200D01*
X112560900Y-131902200D01*
X112735863Y-131867398D01*
X112884189Y-131768289D01*
X118430299Y-126222179D01*
X118508915Y-126339837D01*
X118908572Y-126606879D01*
X119380000Y-126700652D01*
X119851428Y-126606879D01*
X120251085Y-126339837D01*
X120518127Y-125940180D01*
X120599800Y-125529584D01*
X120704336Y-125550377D01*
X120781873Y-125940180D01*
X121048915Y-126339837D01*
X121448572Y-126606879D01*
X121920000Y-126700652D01*
X122391428Y-126606879D01*
X122791085Y-126339837D01*
X123058127Y-125940180D01*
X123139800Y-125529584D01*
X123244336Y-125550377D01*
X123321873Y-125940180D01*
X123588915Y-126339837D01*
X123988572Y-126606879D01*
X124460000Y-126700652D01*
X124931428Y-126606879D01*
X125331085Y-126339837D01*
X125598127Y-125940180D01*
X125691900Y-125468752D01*
X125691900Y-124721248D01*
X125598127Y-124249820D01*
X125331085Y-123850163D01*
X124931428Y-123583121D01*
X124460000Y-123489348D01*
X123988572Y-123583121D01*
X123588915Y-123850163D01*
X123510299Y-123967820D01*
X120504189Y-120961711D01*
X120355863Y-120862602D01*
X120180900Y-120827800D01*
X106160055Y-120827800D01*
X105901508Y-120440856D01*
X105606293Y-120243600D01*
X106039257Y-120243600D01*
X106263311Y-120150794D01*
X106434794Y-119979311D01*
X106527600Y-119755257D01*
X106527600Y-119049800D01*
X106375200Y-118897400D01*
X104927400Y-118897400D01*
X104927400Y-118917400D01*
X104622600Y-118917400D01*
X104622600Y-118897400D01*
X103174800Y-118897400D01*
X103022400Y-119049800D01*
X102019100Y-119049800D01*
X102019100Y-117734743D01*
X103022400Y-117734743D01*
X103022400Y-118440200D01*
X103174800Y-118592600D01*
X104622600Y-118592600D01*
X104622600Y-117398800D01*
X104927400Y-117398800D01*
X104927400Y-118592600D01*
X106375200Y-118592600D01*
X106527600Y-118440200D01*
X106527600Y-117734743D01*
X106434794Y-117510689D01*
X106263311Y-117339206D01*
X106039257Y-117246400D01*
X105079800Y-117246400D01*
X104927400Y-117398800D01*
X104622600Y-117398800D01*
X104470200Y-117246400D01*
X103510743Y-117246400D01*
X103286689Y-117339206D01*
X103115206Y-117510689D01*
X103022400Y-117734743D01*
X102019100Y-117734743D01*
X102019100Y-105157177D01*
X102844866Y-105157177D01*
X103138041Y-105866716D01*
X103680429Y-106410051D01*
X104389455Y-106704464D01*
X105157177Y-106705134D01*
X105866716Y-106411959D01*
X106410051Y-105869571D01*
X106704464Y-105160545D01*
X106705134Y-104392823D01*
X106411959Y-103683284D01*
X106233986Y-103505000D01*
X107904934Y-103505000D01*
X107904934Y-106045000D01*
X107932533Y-106183748D01*
X108011127Y-106301373D01*
X108128752Y-106379967D01*
X108254800Y-106405040D01*
X108254800Y-108230013D01*
X108154152Y-108250033D01*
X108036527Y-108328627D01*
X107957933Y-108446252D01*
X107930334Y-108585000D01*
X107930334Y-111125000D01*
X107957933Y-111263748D01*
X108036527Y-111381373D01*
X108154152Y-111459967D01*
X108292900Y-111487566D01*
X110147100Y-111487566D01*
X110285848Y-111459967D01*
X110403473Y-111381373D01*
X110482067Y-111263748D01*
X110509666Y-111125000D01*
X110509666Y-110392461D01*
X110574940Y-110720615D01*
X110852994Y-111136753D01*
X111269132Y-111414807D01*
X111760000Y-111512447D01*
X112250868Y-111414807D01*
X112667006Y-111136753D01*
X112945060Y-110720615D01*
X113030000Y-110293594D01*
X113114940Y-110720615D01*
X113392994Y-111136753D01*
X113809132Y-111414807D01*
X114300000Y-111512447D01*
X114790868Y-111414807D01*
X115207006Y-111136753D01*
X115485060Y-110720615D01*
X115570000Y-110293594D01*
X115654940Y-110720615D01*
X115932994Y-111136753D01*
X116349132Y-111414807D01*
X116840000Y-111512447D01*
X117330868Y-111414807D01*
X117747006Y-111136753D01*
X118025060Y-110720615D01*
X118110000Y-110293594D01*
X118194940Y-110720615D01*
X118472994Y-111136753D01*
X118889132Y-111414807D01*
X119380000Y-111512447D01*
X119870868Y-111414807D01*
X120287006Y-111136753D01*
X120565060Y-110720615D01*
X120650000Y-110293594D01*
X120734940Y-110720615D01*
X121012994Y-111136753D01*
X121429132Y-111414807D01*
X121920000Y-111512447D01*
X122410868Y-111414807D01*
X122827006Y-111136753D01*
X123105060Y-110720615D01*
X123190000Y-110293594D01*
X123274940Y-110720615D01*
X123552994Y-111136753D01*
X123969132Y-111414807D01*
X124460000Y-111512447D01*
X124950868Y-111414807D01*
X125367006Y-111136753D01*
X125645060Y-110720615D01*
X125730000Y-110293594D01*
X125814940Y-110720615D01*
X126092994Y-111136753D01*
X126509132Y-111414807D01*
X127000000Y-111512447D01*
X127490868Y-111414807D01*
X127907006Y-111136753D01*
X128185060Y-110720615D01*
X128270000Y-110293594D01*
X128354940Y-110720615D01*
X128632994Y-111136753D01*
X129049132Y-111414807D01*
X129540000Y-111512447D01*
X130030868Y-111414807D01*
X130447006Y-111136753D01*
X130725060Y-110720615D01*
X130810000Y-110293594D01*
X130894940Y-110720615D01*
X131172994Y-111136753D01*
X131589132Y-111414807D01*
X132080000Y-111512447D01*
X132570868Y-111414807D01*
X132987006Y-111136753D01*
X133265060Y-110720615D01*
X133350000Y-110293594D01*
X133434940Y-110720615D01*
X133712994Y-111136753D01*
X134129132Y-111414807D01*
X134620000Y-111512447D01*
X135110868Y-111414807D01*
X135527006Y-111136753D01*
X135805060Y-110720615D01*
X135890000Y-110293594D01*
X135974940Y-110720615D01*
X136252994Y-111136753D01*
X136669132Y-111414807D01*
X137160000Y-111512447D01*
X137650868Y-111414807D01*
X138067006Y-111136753D01*
X138345060Y-110720615D01*
X138442700Y-110229747D01*
X138442700Y-109481248D01*
X138468100Y-109481248D01*
X138468100Y-110228752D01*
X138561873Y-110700180D01*
X138828915Y-111099837D01*
X139228572Y-111366879D01*
X139700000Y-111460652D01*
X140171428Y-111366879D01*
X140571085Y-111099837D01*
X140838127Y-110700180D01*
X140931900Y-110228752D01*
X140931900Y-109481248D01*
X140838127Y-109009820D01*
X140571085Y-108610163D01*
X140171428Y-108343121D01*
X139700000Y-108249348D01*
X139228572Y-108343121D01*
X138828915Y-108610163D01*
X138561873Y-109009820D01*
X138468100Y-109481248D01*
X138442700Y-109481248D01*
X138442700Y-109480253D01*
X138345060Y-108989385D01*
X138067006Y-108573247D01*
X137650868Y-108295193D01*
X137160000Y-108197553D01*
X136669132Y-108295193D01*
X136252994Y-108573247D01*
X135974940Y-108989385D01*
X135890000Y-109416406D01*
X135805060Y-108989385D01*
X135585200Y-108660341D01*
X135585200Y-105989099D01*
X135828527Y-105624935D01*
X135890000Y-105315889D01*
X135951473Y-105624935D01*
X136235034Y-106049313D01*
X136659412Y-106332874D01*
X137160000Y-106432447D01*
X137660588Y-106332874D01*
X138084966Y-106049313D01*
X138368527Y-105624935D01*
X138461569Y-105157177D01*
X139674866Y-105157177D01*
X139968041Y-105866716D01*
X140510429Y-106410051D01*
X141219455Y-106704464D01*
X141987177Y-106705134D01*
X142696716Y-106411959D01*
X143240051Y-105869571D01*
X143534464Y-105160545D01*
X143535134Y-104392823D01*
X143241959Y-103683284D01*
X142699571Y-103139949D01*
X141990545Y-102845536D01*
X141222823Y-102844866D01*
X140513284Y-103138041D01*
X139969949Y-103680429D01*
X139675536Y-104389455D01*
X139674866Y-105157177D01*
X138461569Y-105157177D01*
X138468100Y-105124347D01*
X138468100Y-104425653D01*
X138368527Y-103925065D01*
X138084966Y-103500687D01*
X137660588Y-103217126D01*
X137160000Y-103117553D01*
X136659412Y-103217126D01*
X136235034Y-103500687D01*
X135951473Y-103925065D01*
X135890000Y-104234111D01*
X135828527Y-103925065D01*
X135544966Y-103500687D01*
X135120588Y-103217126D01*
X134620000Y-103117553D01*
X134119412Y-103217126D01*
X133695034Y-103500687D01*
X133411473Y-103925065D01*
X133350000Y-104234111D01*
X133288527Y-103925065D01*
X133004966Y-103500687D01*
X132580588Y-103217126D01*
X132080000Y-103117553D01*
X131579412Y-103217126D01*
X131155034Y-103500687D01*
X130871473Y-103925065D01*
X130810000Y-104234111D01*
X130748527Y-103925065D01*
X130464966Y-103500687D01*
X130040588Y-103217126D01*
X129540000Y-103117553D01*
X129039412Y-103217126D01*
X128615034Y-103500687D01*
X128331473Y-103925065D01*
X128270000Y-104234111D01*
X128208527Y-103925065D01*
X127924966Y-103500687D01*
X127500588Y-103217126D01*
X127000000Y-103117553D01*
X126499412Y-103217126D01*
X126075034Y-103500687D01*
X125791473Y-103925065D01*
X125730000Y-104234111D01*
X125668527Y-103925065D01*
X125384966Y-103500687D01*
X124960588Y-103217126D01*
X124460000Y-103117553D01*
X123959412Y-103217126D01*
X123535034Y-103500687D01*
X123251473Y-103925065D01*
X123190000Y-104234111D01*
X123128527Y-103925065D01*
X122844966Y-103500687D01*
X122420588Y-103217126D01*
X121920000Y-103117553D01*
X121419412Y-103217126D01*
X120995034Y-103500687D01*
X120711473Y-103925065D01*
X120650000Y-104234111D01*
X120588527Y-103925065D01*
X120304966Y-103500687D01*
X119880588Y-103217126D01*
X119380000Y-103117553D01*
X118879412Y-103217126D01*
X118455034Y-103500687D01*
X118171473Y-103925065D01*
X118110000Y-104234111D01*
X118048527Y-103925065D01*
X117764966Y-103500687D01*
X117340588Y-103217126D01*
X116840000Y-103117553D01*
X116339412Y-103217126D01*
X115915034Y-103500687D01*
X115631473Y-103925065D01*
X115570000Y-104234111D01*
X115508527Y-103925065D01*
X115224966Y-103500687D01*
X114800588Y-103217126D01*
X114300000Y-103117553D01*
X113799412Y-103217126D01*
X113375034Y-103500687D01*
X113091473Y-103925065D01*
X113030000Y-104234111D01*
X112968527Y-103925065D01*
X112684966Y-103500687D01*
X112260588Y-103217126D01*
X111760000Y-103117553D01*
X111259412Y-103217126D01*
X110835034Y-103500687D01*
X110551473Y-103925065D01*
X110535066Y-104007549D01*
X110535066Y-103505000D01*
X110507467Y-103366252D01*
X110428873Y-103248627D01*
X110311248Y-103170033D01*
X110172500Y-103142434D01*
X108267500Y-103142434D01*
X108128752Y-103170033D01*
X108011127Y-103248627D01*
X107932533Y-103366252D01*
X107904934Y-103505000D01*
X106233986Y-103505000D01*
X105869571Y-103139949D01*
X105160545Y-102845536D01*
X104392823Y-102844866D01*
X103683284Y-103138041D01*
X103139949Y-103680429D01*
X102845536Y-104389455D01*
X102844866Y-105157177D01*
X102019100Y-105157177D01*
X102019100Y-104181277D01*
X102188129Y-103331510D01*
X102646102Y-102646104D01*
X103331510Y-102188129D01*
X104181277Y-102019100D01*
X142198723Y-102019100D01*
X143048490Y-102188129D01*
X143048490Y-102188129D01*
G37*
X143048490Y-102188129D02*
X143733896Y-102646102D01*
X144191871Y-103331510D01*
X144360900Y-104181277D01*
X144360900Y-142198723D01*
X144191871Y-143048490D01*
X143733896Y-143733898D01*
X143048490Y-144191871D01*
X142198723Y-144360900D01*
X104181277Y-144360900D01*
X103331510Y-144191871D01*
X102646102Y-143733896D01*
X102188129Y-143048490D01*
X102019100Y-142198723D01*
X102019100Y-141987177D01*
X102844866Y-141987177D01*
X103138041Y-142696716D01*
X103680429Y-143240051D01*
X104389455Y-143534464D01*
X105157177Y-143535134D01*
X105866716Y-143241959D01*
X106410051Y-142699571D01*
X106704464Y-141990545D01*
X106704466Y-141987177D01*
X139674866Y-141987177D01*
X139968041Y-142696716D01*
X140510429Y-143240051D01*
X141219455Y-143534464D01*
X141987177Y-143535134D01*
X142696716Y-143241959D01*
X143240051Y-142699571D01*
X143534464Y-141990545D01*
X143535134Y-141222823D01*
X143241959Y-140513284D01*
X142699571Y-139969949D01*
X141990545Y-139675536D01*
X141222823Y-139674866D01*
X140513284Y-139968041D01*
X139969949Y-140510429D01*
X139675536Y-141219455D01*
X139674866Y-141987177D01*
X106704466Y-141987177D01*
X106705134Y-141222823D01*
X106411959Y-140513284D01*
X105869571Y-139969949D01*
X105160545Y-139675536D01*
X104392823Y-139674866D01*
X103683284Y-139968041D01*
X103139949Y-140510429D01*
X102845536Y-141219455D01*
X102844866Y-141987177D01*
X102019100Y-141987177D01*
X102019100Y-136210600D01*
X111377700Y-136210600D01*
X111377700Y-137614700D01*
X111412502Y-137789663D01*
X111511611Y-137937989D01*
X112149011Y-138575389D01*
X112150567Y-138576429D01*
X112090200Y-138576429D01*
X111971273Y-138600085D01*
X111870452Y-138667452D01*
X111803085Y-138768273D01*
X111779429Y-138887200D01*
X111779429Y-141020800D01*
X111803085Y-141139727D01*
X111870452Y-141240548D01*
X111971273Y-141307915D01*
X112090200Y-141331571D01*
X113715800Y-141331571D01*
X113834727Y-141307915D01*
X113935548Y-141240548D01*
X114002915Y-141139727D01*
X114026571Y-141020800D01*
X114026571Y-140364478D01*
X114172494Y-140867408D01*
X114521550Y-141303415D01*
X115010888Y-141572655D01*
X115071245Y-141580960D01*
X115290600Y-141468823D01*
X115290600Y-140106400D01*
X115595400Y-140106400D01*
X115595400Y-141468823D01*
X115814755Y-141580960D01*
X115875112Y-141572655D01*
X116364450Y-141303415D01*
X116713506Y-140867408D01*
X116869139Y-140331012D01*
X116718424Y-140106400D01*
X115595400Y-140106400D01*
X115290600Y-140106400D01*
X115270600Y-140106400D01*
X115270600Y-139801600D01*
X115290600Y-139801600D01*
X115290600Y-139781600D01*
X115595400Y-139781600D01*
X115595400Y-139801600D01*
X116718424Y-139801600D01*
X116869139Y-139576988D01*
X116720588Y-139065000D01*
X117071039Y-139065000D01*
X116950472Y-139245442D01*
X116865400Y-139673129D01*
X116865400Y-140234871D01*
X116950472Y-140662558D01*
X117192737Y-141025134D01*
X117555313Y-141267399D01*
X117983000Y-141352471D01*
X118410687Y-141267399D01*
X118773263Y-141025134D01*
X119015528Y-140662558D01*
X119077853Y-140349231D01*
X120327111Y-141598489D01*
X120475437Y-141697598D01*
X120650400Y-141732400D01*
X131406900Y-141732400D01*
X131581863Y-141697598D01*
X131730189Y-141598489D01*
X132533252Y-140795427D01*
X132686737Y-141025134D01*
X133049313Y-141267399D01*
X133477000Y-141352471D01*
X133904687Y-141267399D01*
X134267263Y-141025134D01*
X134509528Y-140662558D01*
X134594600Y-140234871D01*
X134594600Y-139673129D01*
X134509528Y-139245442D01*
X134267263Y-138882866D01*
X133904687Y-138640601D01*
X133477000Y-138555529D01*
X133049313Y-138640601D01*
X132686737Y-138882866D01*
X132446237Y-139242800D01*
X132384800Y-139242800D01*
X132272648Y-139265108D01*
X132207506Y-139040592D01*
X131858450Y-138604585D01*
X131771457Y-138556721D01*
X132552277Y-137775901D01*
X132686737Y-137977134D01*
X133049313Y-138219399D01*
X133477000Y-138304471D01*
X133904687Y-138219399D01*
X134267263Y-137977134D01*
X134509528Y-137614558D01*
X134594600Y-137186871D01*
X134594600Y-136625129D01*
X134509528Y-136197442D01*
X134267263Y-135834866D01*
X133904687Y-135592601D01*
X133477000Y-135507529D01*
X133049313Y-135592601D01*
X132686737Y-135834866D01*
X132444472Y-136197442D01*
X132359400Y-136625129D01*
X132359400Y-136707852D01*
X132209837Y-136737602D01*
X132061511Y-136836711D01*
X132054600Y-136847054D01*
X132054600Y-136625129D01*
X131969528Y-136197442D01*
X131727263Y-135834866D01*
X131364687Y-135592601D01*
X130937000Y-135507529D01*
X130509313Y-135592601D01*
X130146737Y-135834866D01*
X129993252Y-136064574D01*
X128770189Y-134841511D01*
X128621863Y-134742402D01*
X128446900Y-134707600D01*
X127457200Y-134707600D01*
X127457200Y-126609709D01*
X127471428Y-126606879D01*
X127871085Y-126339837D01*
X128138127Y-125940180D01*
X128231900Y-125468752D01*
X128231900Y-124721248D01*
X128308100Y-124721248D01*
X128308100Y-125468752D01*
X128401873Y-125940180D01*
X128668915Y-126339837D01*
X129068572Y-126606879D01*
X129540000Y-126700652D01*
X130011428Y-126606879D01*
X130411085Y-126339837D01*
X130658586Y-125969425D01*
X130718595Y-126166769D01*
X131101152Y-126632274D01*
X131632730Y-126915947D01*
X131690269Y-126924357D01*
X131927600Y-126813785D01*
X131927600Y-125247400D01*
X132232400Y-125247400D01*
X132232400Y-126813785D01*
X132469731Y-126924357D01*
X132527270Y-126915947D01*
X133058848Y-126632274D01*
X133441405Y-126166769D01*
X133616700Y-125590300D01*
X133616700Y-125247400D01*
X132232400Y-125247400D01*
X131927600Y-125247400D01*
X131907600Y-125247400D01*
X131907600Y-124942600D01*
X131927600Y-124942600D01*
X131927600Y-123376215D01*
X132232400Y-123376215D01*
X132232400Y-124942600D01*
X133616700Y-124942600D01*
X133616700Y-124599700D01*
X133441405Y-124023231D01*
X133058848Y-123557726D01*
X132527270Y-123274053D01*
X132469731Y-123265643D01*
X132232400Y-123376215D01*
X131927600Y-123376215D01*
X131690269Y-123265643D01*
X131632730Y-123274053D01*
X131101152Y-123557726D01*
X130718595Y-124023231D01*
X130658586Y-124220575D01*
X130411085Y-123850163D01*
X130011428Y-123583121D01*
X129540000Y-123489348D01*
X129068572Y-123583121D01*
X128668915Y-123850163D01*
X128401873Y-124249820D01*
X128308100Y-124721248D01*
X128231900Y-124721248D01*
X128138127Y-124249820D01*
X127871085Y-123850163D01*
X127471428Y-123583121D01*
X127000000Y-123489348D01*
X126528572Y-123583121D01*
X126128915Y-123850163D01*
X125861873Y-124249820D01*
X125768100Y-124721248D01*
X125768100Y-125468752D01*
X125861873Y-125940180D01*
X126128915Y-126339837D01*
X126528572Y-126606879D01*
X126542800Y-126609709D01*
X126542800Y-134707600D01*
X112880700Y-134707600D01*
X112705737Y-134742402D01*
X112557411Y-134841510D01*
X111511611Y-135887311D01*
X111412502Y-136035637D01*
X111377700Y-136210600D01*
X102019100Y-136210600D01*
X102019100Y-133985000D01*
X103298836Y-133985000D01*
X103389709Y-134441847D01*
X103648492Y-134829144D01*
X104035789Y-135087927D01*
X104492636Y-135178800D01*
X105057364Y-135178800D01*
X105514211Y-135087927D01*
X105901508Y-134829144D01*
X106160291Y-134441847D01*
X106251164Y-133985000D01*
X106160291Y-133528153D01*
X105901508Y-133140856D01*
X105514211Y-132882073D01*
X105057364Y-132791200D01*
X104492636Y-132791200D01*
X104035789Y-132882073D01*
X103648492Y-133140856D01*
X103389709Y-133528153D01*
X103298836Y-133985000D01*
X102019100Y-133985000D01*
X102019100Y-127635000D01*
X103298836Y-127635000D01*
X103389709Y-128091847D01*
X103648492Y-128479144D01*
X104035789Y-128737927D01*
X104492636Y-128828800D01*
X105057364Y-128828800D01*
X105514211Y-128737927D01*
X105901508Y-128479144D01*
X106160291Y-128091847D01*
X106251164Y-127635000D01*
X106160291Y-127178153D01*
X105901508Y-126790856D01*
X105514211Y-126532073D01*
X105057364Y-126441200D01*
X104492636Y-126441200D01*
X104035789Y-126532073D01*
X103648492Y-126790856D01*
X103389709Y-127178153D01*
X103298836Y-127635000D01*
X102019100Y-127635000D01*
X102019100Y-119049800D01*
X103022400Y-119049800D01*
X103022400Y-119755257D01*
X103115206Y-119979311D01*
X103286689Y-120150794D01*
X103510743Y-120243600D01*
X103943707Y-120243600D01*
X103648492Y-120440856D01*
X103389709Y-120828153D01*
X103298836Y-121285000D01*
X103389709Y-121741847D01*
X103648492Y-122129144D01*
X104035789Y-122387927D01*
X104492636Y-122478800D01*
X105057364Y-122478800D01*
X105514211Y-122387927D01*
X105901508Y-122129144D01*
X106160055Y-121742200D01*
X119991522Y-121742200D01*
X121768754Y-123519433D01*
X121448572Y-123583121D01*
X121048915Y-123850163D01*
X120970299Y-123967820D01*
X120236889Y-123234411D01*
X120088563Y-123135302D01*
X119913600Y-123100500D01*
X105143900Y-123100500D01*
X104968937Y-123135302D01*
X104820611Y-123234411D01*
X104451711Y-123603311D01*
X104352602Y-123751637D01*
X104324040Y-123895229D01*
X103632000Y-123895229D01*
X103513073Y-123918885D01*
X103412252Y-123986252D01*
X103344885Y-124087073D01*
X103321229Y-124206000D01*
X103321229Y-125984000D01*
X103344885Y-126102927D01*
X103412252Y-126203748D01*
X103513073Y-126271115D01*
X103632000Y-126294771D01*
X105918000Y-126294771D01*
X106036927Y-126271115D01*
X106137748Y-126203748D01*
X106205115Y-126102927D01*
X106228771Y-125984000D01*
X106228771Y-124206000D01*
X106205115Y-124087073D01*
X106156890Y-124014900D01*
X115858841Y-124014900D01*
X115701873Y-124249820D01*
X115608100Y-124721248D01*
X115608100Y-125468752D01*
X115701873Y-125940180D01*
X115968915Y-126339837D01*
X116368572Y-126606879D01*
X116688755Y-126670567D01*
X112371522Y-130987800D01*
X106228771Y-130987800D01*
X106228771Y-130556000D01*
X106205115Y-130437073D01*
X106137748Y-130336252D01*
X106036927Y-130268885D01*
X105918000Y-130245229D01*
X103632000Y-130245229D01*
X103513073Y-130268885D01*
X103412252Y-130336252D01*
X103344885Y-130437073D01*
X103321229Y-130556000D01*
X103321229Y-132334000D01*
X103344885Y-132452927D01*
X103412252Y-132553748D01*
X103513073Y-132621115D01*
X103632000Y-132644771D01*
X105918000Y-132644771D01*
X106036927Y-132621115D01*
X106137748Y-132553748D01*
X106205115Y-132452927D01*
X106228771Y-132334000D01*
X106228771Y-131902200D01*
X112560900Y-131902200D01*
X112735863Y-131867398D01*
X112884189Y-131768289D01*
X118430299Y-126222179D01*
X118508915Y-126339837D01*
X118908572Y-126606879D01*
X119380000Y-126700652D01*
X119851428Y-126606879D01*
X120251085Y-126339837D01*
X120518127Y-125940180D01*
X120599800Y-125529584D01*
X120704336Y-125550377D01*
X120781873Y-125940180D01*
X121048915Y-126339837D01*
X121448572Y-126606879D01*
X121920000Y-126700652D01*
X122391428Y-126606879D01*
X122791085Y-126339837D01*
X123058127Y-125940180D01*
X123139800Y-125529584D01*
X123244336Y-125550377D01*
X123321873Y-125940180D01*
X123588915Y-126339837D01*
X123988572Y-126606879D01*
X124460000Y-126700652D01*
X124931428Y-126606879D01*
X125331085Y-126339837D01*
X125598127Y-125940180D01*
X125691900Y-125468752D01*
X125691900Y-124721248D01*
X125598127Y-124249820D01*
X125331085Y-123850163D01*
X124931428Y-123583121D01*
X124460000Y-123489348D01*
X123988572Y-123583121D01*
X123588915Y-123850163D01*
X123510299Y-123967820D01*
X120504189Y-120961711D01*
X120355863Y-120862602D01*
X120180900Y-120827800D01*
X106160055Y-120827800D01*
X105901508Y-120440856D01*
X105606293Y-120243600D01*
X106039257Y-120243600D01*
X106263311Y-120150794D01*
X106434794Y-119979311D01*
X106527600Y-119755257D01*
X106527600Y-119049800D01*
X106375200Y-118897400D01*
X104927400Y-118897400D01*
X104927400Y-118917400D01*
X104622600Y-118917400D01*
X104622600Y-118897400D01*
X103174800Y-118897400D01*
X103022400Y-119049800D01*
X102019100Y-119049800D01*
X102019100Y-117734743D01*
X103022400Y-117734743D01*
X103022400Y-118440200D01*
X103174800Y-118592600D01*
X104622600Y-118592600D01*
X104622600Y-117398800D01*
X104927400Y-117398800D01*
X104927400Y-118592600D01*
X106375200Y-118592600D01*
X106527600Y-118440200D01*
X106527600Y-117734743D01*
X106434794Y-117510689D01*
X106263311Y-117339206D01*
X106039257Y-117246400D01*
X105079800Y-117246400D01*
X104927400Y-117398800D01*
X104622600Y-117398800D01*
X104470200Y-117246400D01*
X103510743Y-117246400D01*
X103286689Y-117339206D01*
X103115206Y-117510689D01*
X103022400Y-117734743D01*
X102019100Y-117734743D01*
X102019100Y-105157177D01*
X102844866Y-105157177D01*
X103138041Y-105866716D01*
X103680429Y-106410051D01*
X104389455Y-106704464D01*
X105157177Y-106705134D01*
X105866716Y-106411959D01*
X106410051Y-105869571D01*
X106704464Y-105160545D01*
X106705134Y-104392823D01*
X106411959Y-103683284D01*
X106233986Y-103505000D01*
X107904934Y-103505000D01*
X107904934Y-106045000D01*
X107932533Y-106183748D01*
X108011127Y-106301373D01*
X108128752Y-106379967D01*
X108254800Y-106405040D01*
X108254800Y-108230013D01*
X108154152Y-108250033D01*
X108036527Y-108328627D01*
X107957933Y-108446252D01*
X107930334Y-108585000D01*
X107930334Y-111125000D01*
X107957933Y-111263748D01*
X108036527Y-111381373D01*
X108154152Y-111459967D01*
X108292900Y-111487566D01*
X110147100Y-111487566D01*
X110285848Y-111459967D01*
X110403473Y-111381373D01*
X110482067Y-111263748D01*
X110509666Y-111125000D01*
X110509666Y-110392461D01*
X110574940Y-110720615D01*
X110852994Y-111136753D01*
X111269132Y-111414807D01*
X111760000Y-111512447D01*
X112250868Y-111414807D01*
X112667006Y-111136753D01*
X112945060Y-110720615D01*
X113030000Y-110293594D01*
X113114940Y-110720615D01*
X113392994Y-111136753D01*
X113809132Y-111414807D01*
X114300000Y-111512447D01*
X114790868Y-111414807D01*
X115207006Y-111136753D01*
X115485060Y-110720615D01*
X115570000Y-110293594D01*
X115654940Y-110720615D01*
X115932994Y-111136753D01*
X116349132Y-111414807D01*
X116840000Y-111512447D01*
X117330868Y-111414807D01*
X117747006Y-111136753D01*
X118025060Y-110720615D01*
X118110000Y-110293594D01*
X118194940Y-110720615D01*
X118472994Y-111136753D01*
X118889132Y-111414807D01*
X119380000Y-111512447D01*
X119870868Y-111414807D01*
X120287006Y-111136753D01*
X120565060Y-110720615D01*
X120650000Y-110293594D01*
X120734940Y-110720615D01*
X121012994Y-111136753D01*
X121429132Y-111414807D01*
X121920000Y-111512447D01*
X122410868Y-111414807D01*
X122827006Y-111136753D01*
X123105060Y-110720615D01*
X123190000Y-110293594D01*
X123274940Y-110720615D01*
X123552994Y-111136753D01*
X123969132Y-111414807D01*
X124460000Y-111512447D01*
X124950868Y-111414807D01*
X125367006Y-111136753D01*
X125645060Y-110720615D01*
X125730000Y-110293594D01*
X125814940Y-110720615D01*
X126092994Y-111136753D01*
X126509132Y-111414807D01*
X127000000Y-111512447D01*
X127490868Y-111414807D01*
X127907006Y-111136753D01*
X128185060Y-110720615D01*
X128270000Y-110293594D01*
X128354940Y-110720615D01*
X128632994Y-111136753D01*
X129049132Y-111414807D01*
X129540000Y-111512447D01*
X130030868Y-111414807D01*
X130447006Y-111136753D01*
X130725060Y-110720615D01*
X130810000Y-110293594D01*
X130894940Y-110720615D01*
X131172994Y-111136753D01*
X131589132Y-111414807D01*
X132080000Y-111512447D01*
X132570868Y-111414807D01*
X132987006Y-111136753D01*
X133265060Y-110720615D01*
X133350000Y-110293594D01*
X133434940Y-110720615D01*
X133712994Y-111136753D01*
X134129132Y-111414807D01*
X134620000Y-111512447D01*
X135110868Y-111414807D01*
X135527006Y-111136753D01*
X135805060Y-110720615D01*
X135890000Y-110293594D01*
X135974940Y-110720615D01*
X136252994Y-111136753D01*
X136669132Y-111414807D01*
X137160000Y-111512447D01*
X137650868Y-111414807D01*
X138067006Y-111136753D01*
X138345060Y-110720615D01*
X138442700Y-110229747D01*
X138442700Y-109481248D01*
X138468100Y-109481248D01*
X138468100Y-110228752D01*
X138561873Y-110700180D01*
X138828915Y-111099837D01*
X139228572Y-111366879D01*
X139700000Y-111460652D01*
X140171428Y-111366879D01*
X140571085Y-111099837D01*
X140838127Y-110700180D01*
X140931900Y-110228752D01*
X140931900Y-109481248D01*
X140838127Y-109009820D01*
X140571085Y-108610163D01*
X140171428Y-108343121D01*
X139700000Y-108249348D01*
X139228572Y-108343121D01*
X138828915Y-108610163D01*
X138561873Y-109009820D01*
X138468100Y-109481248D01*
X138442700Y-109481248D01*
X138442700Y-109480253D01*
X138345060Y-108989385D01*
X138067006Y-108573247D01*
X137650868Y-108295193D01*
X137160000Y-108197553D01*
X136669132Y-108295193D01*
X136252994Y-108573247D01*
X135974940Y-108989385D01*
X135890000Y-109416406D01*
X135805060Y-108989385D01*
X135585200Y-108660341D01*
X135585200Y-105989099D01*
X135828527Y-105624935D01*
X135890000Y-105315889D01*
X135951473Y-105624935D01*
X136235034Y-106049313D01*
X136659412Y-106332874D01*
X137160000Y-106432447D01*
X137660588Y-106332874D01*
X138084966Y-106049313D01*
X138368527Y-105624935D01*
X138461569Y-105157177D01*
X139674866Y-105157177D01*
X139968041Y-105866716D01*
X140510429Y-106410051D01*
X141219455Y-106704464D01*
X141987177Y-106705134D01*
X142696716Y-106411959D01*
X143240051Y-105869571D01*
X143534464Y-105160545D01*
X143535134Y-104392823D01*
X143241959Y-103683284D01*
X142699571Y-103139949D01*
X141990545Y-102845536D01*
X141222823Y-102844866D01*
X140513284Y-103138041D01*
X139969949Y-103680429D01*
X139675536Y-104389455D01*
X139674866Y-105157177D01*
X138461569Y-105157177D01*
X138468100Y-105124347D01*
X138468100Y-104425653D01*
X138368527Y-103925065D01*
X138084966Y-103500687D01*
X137660588Y-103217126D01*
X137160000Y-103117553D01*
X136659412Y-103217126D01*
X136235034Y-103500687D01*
X135951473Y-103925065D01*
X135890000Y-104234111D01*
X135828527Y-103925065D01*
X135544966Y-103500687D01*
X135120588Y-103217126D01*
X134620000Y-103117553D01*
X134119412Y-103217126D01*
X133695034Y-103500687D01*
X133411473Y-103925065D01*
X133350000Y-104234111D01*
X133288527Y-103925065D01*
X133004966Y-103500687D01*
X132580588Y-103217126D01*
X132080000Y-103117553D01*
X131579412Y-103217126D01*
X131155034Y-103500687D01*
X130871473Y-103925065D01*
X130810000Y-104234111D01*
X130748527Y-103925065D01*
X130464966Y-103500687D01*
X130040588Y-103217126D01*
X129540000Y-103117553D01*
X129039412Y-103217126D01*
X128615034Y-103500687D01*
X128331473Y-103925065D01*
X128270000Y-104234111D01*
X128208527Y-103925065D01*
X127924966Y-103500687D01*
X127500588Y-103217126D01*
X127000000Y-103117553D01*
X126499412Y-103217126D01*
X126075034Y-103500687D01*
X125791473Y-103925065D01*
X125730000Y-104234111D01*
X125668527Y-103925065D01*
X125384966Y-103500687D01*
X124960588Y-103217126D01*
X124460000Y-103117553D01*
X123959412Y-103217126D01*
X123535034Y-103500687D01*
X123251473Y-103925065D01*
X123190000Y-104234111D01*
X123128527Y-103925065D01*
X122844966Y-103500687D01*
X122420588Y-103217126D01*
X121920000Y-103117553D01*
X121419412Y-103217126D01*
X120995034Y-103500687D01*
X120711473Y-103925065D01*
X120650000Y-104234111D01*
X120588527Y-103925065D01*
X120304966Y-103500687D01*
X119880588Y-103217126D01*
X119380000Y-103117553D01*
X118879412Y-103217126D01*
X118455034Y-103500687D01*
X118171473Y-103925065D01*
X118110000Y-104234111D01*
X118048527Y-103925065D01*
X117764966Y-103500687D01*
X117340588Y-103217126D01*
X116840000Y-103117553D01*
X116339412Y-103217126D01*
X115915034Y-103500687D01*
X115631473Y-103925065D01*
X115570000Y-104234111D01*
X115508527Y-103925065D01*
X115224966Y-103500687D01*
X114800588Y-103217126D01*
X114300000Y-103117553D01*
X113799412Y-103217126D01*
X113375034Y-103500687D01*
X113091473Y-103925065D01*
X113030000Y-104234111D01*
X112968527Y-103925065D01*
X112684966Y-103500687D01*
X112260588Y-103217126D01*
X111760000Y-103117553D01*
X111259412Y-103217126D01*
X110835034Y-103500687D01*
X110551473Y-103925065D01*
X110535066Y-104007549D01*
X110535066Y-103505000D01*
X110507467Y-103366252D01*
X110428873Y-103248627D01*
X110311248Y-103170033D01*
X110172500Y-103142434D01*
X108267500Y-103142434D01*
X108128752Y-103170033D01*
X108011127Y-103248627D01*
X107932533Y-103366252D01*
X107904934Y-103505000D01*
X106233986Y-103505000D01*
X105869571Y-103139949D01*
X105160545Y-102845536D01*
X104392823Y-102844866D01*
X103683284Y-103138041D01*
X103139949Y-103680429D01*
X102845536Y-104389455D01*
X102844866Y-105157177D01*
X102019100Y-105157177D01*
X102019100Y-104181277D01*
X102188129Y-103331510D01*
X102646102Y-102646104D01*
X103331510Y-102188129D01*
X104181277Y-102019100D01*
X142198723Y-102019100D01*
X143048490Y-102188129D01*
G36*
X131089400Y-139801600D02*
X131109400Y-139801600D01*
X131109400Y-140106400D01*
X131089400Y-140106400D01*
X131089400Y-140126400D01*
X130784600Y-140126400D01*
X130784600Y-140106400D01*
X130764600Y-140106400D01*
X130764600Y-139801600D01*
X130784600Y-139801600D01*
X130784600Y-139781600D01*
X131089400Y-139781600D01*
X131089400Y-139801600D01*
X131089400Y-139801600D01*
G37*
X131089400Y-139801600D02*
X131109400Y-139801600D01*
X131109400Y-140106400D01*
X131089400Y-140106400D01*
X131089400Y-140126400D01*
X130784600Y-140126400D01*
X130784600Y-140106400D01*
X130764600Y-140106400D01*
X130764600Y-139801600D01*
X130784600Y-139801600D01*
X130784600Y-139781600D01*
X131089400Y-139781600D01*
X131089400Y-139801600D01*
%TD*%
M02*
